<?xml version="1.0" encoding="UTF-8"?>
<svg width="16px" height="16px" viewBox="0 0 16 16" version="1.1" xmlns="http://www.w3.org/2000/svg" xmlns:xlink="http://www.w3.org/1999/xlink">
    <title>编组 137</title>
    <defs>
        <rect id="path-1" x="0" y="0" width="12.8" height="12.8"></rect>
    </defs>
    <g id="页面-1" stroke="none" stroke-width="1" fill="none" fill-rule="evenodd">
        <g id="Swap_Pro-Mode" transform="translate(-1463, -229)">
            <g id="编组-62" transform="translate(1451, 223)">
                <g id="编组-137" transform="translate(12, 6)">
                    <rect id="矩形备份-13" fill-rule="nonzero" x="0" y="0" width="16" height="16" rx="8"></rect>
                    <g id="icon_merge" transform="translate(1.6, 1.6)">
                        <mask id="mask-2" fill="white">
                            <use xlink:href="#path-1"></use>
                        </mask>
                        <g id="蒙版"></g>
                        <g id="编组-163" mask="url(#mask-2)" fill="#76C8FF" fill-rule="nonzero">
                            <g transform="translate(6.3716, 6.4) rotate(-270) translate(-6.3716, -6.4)translate(-0.0284, 0.0284)">
                                <path d="M1.83988125,5.77006848 C2.8560196,5.77006848 3.67976249,6.59381137 3.67976249,7.60994972 C3.67976249,8.62608808 2.8560196,9.44983097 1.83988125,9.44983097 C0.823742893,9.44983097 0,8.62608808 0,7.60994972 C0,6.59381137 0.823742893,5.77006848 1.83988125,5.77006848 Z M1.83988125,6.66309173 C1.31694602,6.66309173 0.893023256,7.08701449 0.893023256,7.60994972 C0.893023256,8.13288495 1.31694602,8.55680771 1.83988125,8.55680771 C2.36281648,8.55680771 2.78673924,8.13288495 2.78673924,7.60994972 C2.78673924,7.08701449 2.36281648,6.66309173 1.83988125,6.66309173 Z" id="椭圆形"></path>
                                <path d="M6.4,9.06348758 C7.41613835,9.06348758 8.23988125,9.88723047 8.23988125,10.9033688 C8.23988125,11.9195072 7.41613835,12.7432501 6.4,12.7432501 C5.38386165,12.7432501 4.56011875,11.9195072 4.56011875,10.9033688 C4.56011875,9.88723047 5.38386165,9.06348758 6.4,9.06348758 Z M6.4,9.95651083 C5.87706477,9.95651083 5.45314201,10.3804336 5.45314201,10.9033688 C5.45314201,11.4263041 5.87706477,11.8502268 6.4,11.8502268 C6.92293523,11.8502268 7.34685799,11.4263041 7.34685799,10.9033688 C7.34685799,10.3804336 6.92293523,9.95651083 6.4,9.95651083 Z" id="椭圆形备份-15"></path>
                                <path d="M10.9601188,5.77006848 C11.9762571,5.77006848 12.8,6.59381137 12.8,7.60994972 C12.8,8.62608808 11.9762571,9.44983097 10.9601188,9.44983097 C9.9439804,9.44983097 9.12023751,8.62608808 9.12023751,7.60994972 C9.12023751,6.59381137 9.9439804,5.77006848 10.9601188,5.77006848 Z M10.9601188,6.66309173 C10.4371835,6.66309173 10.0132608,7.08701449 10.0132608,7.60994972 C10.0132608,8.13288495 10.4371835,8.55680771 10.9601188,8.55680771 C11.483054,8.55680771 11.9069767,8.13288495 11.9069767,7.60994972 C11.9069767,7.08701449 11.483054,6.66309173 10.9601188,6.66309173 Z" id="椭圆形备份-19"></path>
                                <path d="M8.38191886,0.814572183 L8.38191886,4.30116298 C8.38191886,4.54776454 8.18200879,4.74767461 7.93540723,4.74767461 C7.68880567,4.74767461 7.4888956,4.54776454 7.4888956,4.30116298 L7.48866759,1.70759544 L4.89532806,1.70759544 C4.66927663,1.70759544 4.48245902,1.53961545 4.45289256,1.32167279 L4.44881643,1.26108381 C4.44881643,1.01448225 4.6487265,0.814572183 4.89532806,0.814572183 L8.38191886,0.814572183 Z" id="路径" transform="translate(6.4154, 2.7811) rotate(-45) translate(-6.4154, -2.7811)"></path>
                                <path d="M6.41536764,0.184951172 C6.66196921,0.184951172 6.86187927,0.384861237 6.86187927,0.6314628 L6.86187927,4.42783295 C6.86187927,6.43186908 5.237287,8.05646135 3.23325087,8.05646135 C2.9866493,8.05646135 2.78673924,7.85655129 2.78673924,7.60994972 C2.78673924,7.36334816 2.9866493,7.1634381 3.23325087,7.1634381 C4.74408387,7.1634381 5.96885602,5.93866595 5.96885602,4.42783295 L5.96885602,0.6314628 C5.96885602,0.384861237 6.16876608,0.184951172 6.41536764,0.184951172 Z" id="路径-88"></path>
                                <path d="M6.96452434,5.75918791 C7.17885565,5.63722717 7.45147422,5.71210832 7.57343495,5.92643963 C8.01098805,6.69538653 8.75694842,7.1634381 9.56674913,7.1634381 C9.8133507,7.1634381 10.0132608,7.36334816 10.0132608,7.60994972 C10.0132608,7.85655129 9.8133507,8.05646135 9.56674913,8.05646135 C8.42379363,8.05646135 7.38828641,7.40673411 6.79727262,6.36809852 C6.67531189,6.15376721 6.75019303,5.88114864 6.96452434,5.75918791 Z M6.41536764,3.92531147 C6.66196921,3.92531147 6.86187927,4.12522154 6.86187927,4.3718231 L6.86187927,4.45856823 C6.86187927,4.7051698 6.66196921,4.90507986 6.41536764,4.90507986 C6.16876608,4.90507986 5.96885602,4.7051698 5.96885602,4.45856823 L5.96885602,4.3718231 C5.96885602,4.12522154 6.16876608,3.92531147 6.41536764,3.92531147 Z" id="形状"></path>
                                <path d="M6.46885602,7.2208462 C6.74499839,7.2208462 6.96885602,7.42075627 6.96885602,7.66735783 L6.96885602,9.5099992 C6.96885602,9.75660077 6.74499839,9.95651083 6.46885602,9.95651083 C6.19271364,9.95651083 5.96885602,9.75660077 5.96885602,9.5099992 L5.96885602,7.66735783 C5.96885602,7.42075627 6.19271364,7.2208462 6.46885602,7.2208462 Z" id="路径-90"></path>
                            </g>
                        </g>
                    </g>
                </g>
            </g>
        </g>
    </g>
</svg>