<?xml version="1.0" encoding="UTF-8"?>
<svg width="32px" height="32px" viewBox="0 0 32 32" version="1.1" xmlns="http://www.w3.org/2000/svg" xmlns:xlink="http://www.w3.org/1999/xlink">
    <title>编组 28备份 2</title>
    <defs>
        <linearGradient x1="50%" y1="0%" x2="50%" y2="100%" id="linearGradient-1">
            <stop stop-color="#03CB9F" offset="0%"></stop>
            <stop stop-color="#5BBFFB" offset="100%"></stop>
        </linearGradient>
    </defs>
    <g id="UI设计" stroke="none" stroke-width="1" fill="none" fill-rule="evenodd">
        <g id="编组-28备份-2" fill="url(#linearGradient-1)" fill-rule="nonzero">
            <g id="编组-30">
                <path d="M16,0 C24.836556,0 32,7.163444 32,16 C32,24.836556 24.836556,32 16,32 C7.163444,32 0,24.836556 0,16 C0,7.163444 7.163444,0 16,0 Z M16,2 C8.2680135,2 2,8.2680135 2,16 C2,23.7319865 8.2680135,30 16,30 C23.7319865,30 30,23.7319865 30,16 C30,8.2680135 23.7319865,2 16,2 Z M17.9282862,14.0707037 C19.6905174,15.8329348 19.7061808,18.6567701 17.9842947,20.3786562 L15.5899331,22.7730178 C13.8680469,24.494904 11.0442117,24.4792405 9.28198052,22.7170094 C7.51974934,20.9547782 7.50408591,18.1309429 9.22597206,16.4090568 L10.4231528,15.211876 C10.8272102,14.8078187 11.4954336,14.8209358 11.9156717,15.2411739 C12.3359098,15.661412 12.3490269,16.3296355 11.9449696,16.7336928 L10.7477888,17.9308736 C9.8249362,18.8537262 9.83319022,20.3417771 10.7452015,21.2537884 C11.6572127,22.1657997 13.1452637,22.1740537 14.0681163,21.251201 L16.4624779,18.8568395 C17.3853305,17.9339868 17.3770765,16.4459359 16.4650652,15.5339246 C16.0448271,15.1136865 16.03171,14.4454631 16.4357673,14.0414058 C16.8398247,13.6373485 17.5080481,13.6504656 17.9282862,14.0707037 Z M22.7170094,9.28198052 C24.4792405,11.0442117 24.494904,13.8680469 22.7730178,15.5899331 L21.575837,16.7871139 C21.1717797,17.1911712 20.5035563,17.1780541 20.0833182,16.757816 C19.6630801,16.3375779 19.6499629,15.6693544 20.0540203,15.2652971 L21.251201,14.0681163 C22.1740537,13.1452637 22.1657997,11.6572127 21.2537884,10.7452015 C20.3417771,9.83319022 18.8537262,9.8249362 17.9308736,10.7477888 L15.536512,13.1421504 C14.6136594,14.065003 14.6219134,15.553054 15.5339246,16.4650652 C15.9541627,16.8853033 15.9672798,17.5535268 15.5632225,17.9575841 C15.1591652,18.3616414 14.4909418,18.3485243 14.0707037,17.9282862 C12.3084725,16.166055 12.2928091,13.3422198 14.0146952,11.6203336 L16.4090568,9.22597206 C18.1309429,7.50408591 20.9547782,7.51974934 22.7170094,9.28198052 Z" id="形状结合"></path>
            </g>
        </g>
    </g>
</svg>