<?xml version="1.0" encoding="UTF-8"?>
<svg width="32px" height="32px" viewBox="0 0 32 32" version="1.1" xmlns="http://www.w3.org/2000/svg" xmlns:xlink="http://www.w3.org/1999/xlink">
    <title>编组 61</title>
    <g id="UI设计" stroke="none" stroke-width="1" fill="none" fill-rule="evenodd">
        <g id="Bridge-lifi-Swap" transform="translate(-746, -549)" fill="#75C8FF">
            <g id="编组-25备份" transform="translate(714, 174)">
                <g id="编组-5" transform="translate(16, 60)">
                    <g id="编组-61" transform="translate(16, 315)">
                        <circle id="椭圆形" opacity="0.15" cx="16" cy="16" r="16"></circle>
                        <path d="M22.1574652,17.0023592 L23.5225578,18.1119276 C23.7368427,18.2861017 23.7693589,18.6010098 23.5951849,18.8152947 C23.5735131,18.8419573 23.5491508,18.866315 23.5224841,18.8879817 L16.6305926,24.4876435 C16.26319,24.7861582 15.73681,24.7861582 15.3694074,24.4876435 L8.47764459,18.8880862 C8.26332662,18.7139529 8.23075055,18.3990509 8.4048839,18.1847329 C8.42657837,18.158032 8.4509707,18.1336415 8.47767319,18.111949 L9.84260666,17.0031076 C10.0997823,16.7941839 10.4682116,16.7941914 10.7253786,17.0031257 L15.4954918,20.8785849 C15.7894311,21.1173947 16.2105509,21.1173725 16.504465,20.8785317 L21.2744928,17.0023075 C21.531713,16.793285 21.9002695,16.7933066 22.1574652,17.0023592 Z" id="路径" opacity="0.600000024"></path>
                        <path d="M16.6305926,7.51235651 L23.4268696,13.0343316 C23.6840512,13.2432916 23.7231425,13.621174 23.5141825,13.8783556 C23.4881584,13.9103852 23.4588992,13.9396444 23.4268696,13.9656684 L16.6305926,19.4876435 C16.26319,19.7861582 15.73681,19.7861582 15.3694074,19.4876435 L8.57313036,13.9656684 C8.3159488,13.7567084 8.27685751,13.378826 8.48581753,13.1216444 C8.51184158,13.0896148 8.54110076,13.0603556 8.57313036,13.0343316 L15.3694074,7.51235651 C15.73681,7.21384184 16.26319,7.21384184 16.6305926,7.51235651 Z" id="路径"></path>
                    </g>
                </g>
            </g>
        </g>
    </g>
</svg>